<svg xmlns="http://www.w3.org/2000/svg" width="100" height="100"><g fill="#a8a7ac"><rect width="20" height="20"/><rect width="20" height="20" fill="#a6a5aa" x="20"/><rect width="20" height="20" fill="#a5a4a9" x="40"/><rect width="20" height="20" fill="#a1a2a7" x="60"/><rect width="20" height="20" fill="#705e54" x="80"/><rect width="20" height="20" fill="#aaa9ae" y="20"/><rect width="20" height="20" fill="#a9a8ad" x="20" y="20"/><rect width="20" height="20" fill="#a7a7a7" x="40" y="20"/><rect width="20" height="20" fill="#a2a5ac" x="60" y="20"/><rect width="20" height="20" fill="#411f06" x="80" y="20"/><rect width="20" height="20" fill="#acabb0" y="40"/><rect width="20" height="20" fill="#abaaaf" x="20" y="40"/><rect width="20" height="20" fill="#a9a9a9" x="40" y="40"/><rect width="20" height="20" fill="#eea877" x="60" y="40"/><rect width="20" height="20" fill="#311708" x="80" y="40"/><rect width="20" height="20" fill="#acabb0" y="60"/><rect width="20" height="20" fill="#acabb0" x="20" y="60"/><rect width="20" height="20" fill="#9b583b" x="40" y="60"/><rect width="20" height="20" fill="#734128" x="60" y="60"/><rect width="20" height="20" fill="#582f19" x="80" y="60"/><rect width="20" height="20" fill="#abaaaf" y="80"/><rect width="20" height="20" fill="#b0aaac" x="20" y="80"/><rect width="20" height="20" fill="#945134" x="40" y="80"/><rect width="20" height="20" fill="#ae6b50" x="60" y="80"/><rect width="20" height="20" fill="#090400" x="80" y="80"/></g></svg>