<svg xmlns="http://www.w3.org/2000/svg" width="100" height="100"><g fill="#a8a1a8"><rect width="20" height="20"/><rect width="20" height="20" fill="#ada8af" x="20"/><rect width="20" height="20" fill="#b6a6a9" x="40"/><rect width="20" height="20" fill="#dbb7a9" x="60"/><rect width="20" height="20" fill="#bcacad" x="80"/><rect width="20" height="20" fill="#aca5ac" y="20"/><rect width="20" height="20" fill="#b3a8ae" x="20" y="20"/><rect width="20" height="20" fill="#9d7c73" x="40" y="20"/><rect width="20" height="20" fill="#c3b3b4" x="60" y="20"/><rect width="20" height="20" fill="#beb7be" x="80" y="20"/><rect width="20" height="20" fill="#afa8af" y="40"/><rect width="20" height="20" fill="#b4abae" x="20" y="40"/><rect width="20" height="20" fill="#bcb2ba" x="40" y="40"/><rect width="20" height="20" fill="#c39d8a" x="60" y="40"/><rect width="20" height="20" fill="#a4867c" x="80" y="40"/><rect width="20" height="20" fill="#afa8af" y="60"/><rect width="20" height="20" fill="#b2adb3" x="20" y="60"/><rect width="20" height="20" fill="#b9b4ba" x="40" y="60"/><rect width="20" height="20" fill="#bdbac1" x="60" y="60"/><rect width="20" height="20" fill="#a1827d" x="80" y="60"/><rect width="20" height="20" fill="#afa8af" y="80"/><rect width="20" height="20" fill="#b1acb2" x="20" y="80"/><rect width="20" height="20" fill="#b7b2b8" x="40" y="80"/><rect width="20" height="20" fill="#bbb6bc" x="60" y="80"/><rect width="20" height="20" fill="#877b89" x="80" y="80"/></g></svg>