<svg xmlns="http://www.w3.org/2000/svg" width="110" height="100"><g fill="#bc884f"><rect width="27" height="20"/><rect width="27" height="20" fill="#c28f58" x="27"/><rect width="27" height="20" fill="#c79967" x="54"/><rect width="27" height="20" fill="#c89e6e" x="81"/><rect width="27" height="20" fill="#8c5c38" y="20"/><rect width="27" height="20" fill="#905a38" x="27" y="20"/><rect width="27" height="20" fill="#97613b" x="54" y="20"/><rect width="27" height="20" fill="#512f0c" x="81" y="20"/><rect width="27" height="20" fill="#4a3323" y="40"/><rect width="27" height="20" fill="#694537" x="27" y="40"/><rect width="27" height="20" fill="#7f552d" x="54" y="40"/><rect width="27" height="20" fill="#855735" x="81" y="40"/><rect width="27" height="20" fill="#751f22" y="60"/><rect width="27" height="20" fill="#b73235" x="27" y="60"/><rect width="27" height="20" fill="#94677c" x="54" y="60"/><rect width="27" height="20" fill="#9894a2" x="81" y="60"/><rect width="27" height="20" fill="#8d1d19" y="80"/><rect width="27" height="20" fill="#771514" x="27" y="80"/><rect width="27" height="20" fill="#7a1c1c" x="54" y="80"/><rect width="27" height="20" fill="#b2373a" x="81" y="80"/></g></svg>