<svg xmlns="http://www.w3.org/2000/svg" width="110" height="100"><g fill="#aaacab"><rect width="27" height="20"/><rect width="27" height="20" fill="#9b9c9e" x="27"/><rect width="27" height="20" fill="#b6b7b9" x="54"/><rect width="27" height="20" fill="#b1b1b1" x="81"/><rect width="27" height="20" fill="#a6a7ab" y="20"/><rect width="27" height="20" fill="#939498" x="27" y="20"/><rect width="27" height="20" fill="#97989a" x="54" y="20"/><rect width="27" height="20" fill="#b0b2b1" x="81" y="20"/><rect width="27" height="20" fill="#b1b2b6" y="40"/><rect width="27" height="20" fill="#a5a6aa" x="27" y="40"/><rect width="27" height="20" fill="#a9aaac" x="54" y="40"/><rect width="27" height="20" fill="#8c8e8d" x="81" y="40"/><rect width="27" height="20" fill="#9e9fa3" y="60"/><rect width="27" height="20" fill="#a4a5a9" x="27" y="60"/><rect width="27" height="20" fill="#a6a7a9" x="54" y="60"/><rect width="27" height="20" fill="#a8a9ab" x="81" y="60"/><rect width="27" height="20" fill="#84878c" y="80"/><rect width="27" height="20" fill="#9fa3a6" x="27" y="80"/><rect width="27" height="20" fill="#9c9da1" x="54" y="80"/><rect width="27" height="20" fill="#98999d" x="81" y="80"/></g></svg>