<svg xmlns="http://www.w3.org/2000/svg" width="100" height="100"><g fill="#dcd9e0"><rect width="20" height="20"/><rect width="20" height="20" fill="#dddae1" x="20"/><rect width="20" height="20" fill="#dddae1" x="40"/><rect width="20" height="20" fill="#8d6858" x="60"/><rect width="20" height="20" fill="#4a2e23" x="80"/><rect width="20" height="20" fill="#dddae1" y="20"/><rect width="20" height="20" fill="#dedce1" x="20" y="20"/><rect width="20" height="20" fill="#dfdde2" x="40" y="20"/><rect width="20" height="20" fill="#ebb6a8" x="60" y="20"/><rect width="20" height="20" fill="#ae8073" x="80" y="20"/><rect width="20" height="20" fill="#dddae1" y="40"/><rect width="20" height="20" fill="#dfdde2" x="20" y="40"/><rect width="20" height="20" fill="#e0dee3" x="40" y="40"/><rect width="20" height="20" fill="#72574e" x="60" y="40"/><rect width="20" height="20" fill="#b0aeaf" x="80" y="40"/><rect width="20" height="20" fill="#dedbe2" y="60"/><rect width="20" height="20" fill="#dbdadf" x="20" y="60"/><rect width="20" height="20" fill="#1a1b1f" x="40" y="60"/><rect width="20" height="20" fill="#3c3f52" x="60" y="60"/><rect width="20" height="20" fill="#191a1c" x="80" y="60"/><rect width="20" height="20" fill="#dfdce3" y="80"/><rect width="20" height="20" fill="#1e1f23" x="20" y="80"/><rect width="20" height="20" fill="#2b1710" x="40" y="80"/><rect width="20" height="20" fill="#282b34" x="60" y="80"/><rect width="20" height="20" fill="#b7b8bc" x="80" y="80"/></g></svg>