<svg xmlns="http://www.w3.org/2000/svg" width="100" height="100"><g fill="#d5d0d4"><rect width="20" height="20"/><rect width="20" height="20" fill="#d7d5d8" x="20"/><rect width="20" height="20" fill="#dcdadd" x="40"/><rect width="20" height="20" fill="#29241e" x="60"/><rect width="20" height="20" fill="#5f3020" x="80"/><rect width="20" height="20" fill="#dbd6da" y="20"/><rect width="20" height="20" fill="#e1dfe0" x="20" y="20"/><rect width="20" height="20" fill="#eceaeb" x="40" y="20"/><rect width="20" height="20" fill="#24100f" x="60" y="20"/><rect width="20" height="20" fill="#804b3d" x="80" y="20"/><rect width="20" height="20" fill="#e1dce0" y="40"/><rect width="20" height="20" fill="#e8e6e7" x="20" y="40"/><rect width="20" height="20" fill="#f7f5f6" x="40" y="40"/><rect width="20" height="20" fill="#f9f6ed" x="60" y="40"/><rect width="20" height="20" fill="#b36853" x="80" y="40"/><rect width="20" height="20" fill="#e1dce0" y="60"/><rect width="20" height="20" fill="#ebe6ea" x="20" y="60"/><rect width="20" height="20" fill="#f8f7f2" x="40" y="60"/><rect width="20" height="20" fill="#f5ffff" x="60" y="60"/><rect width="20" height="20" fill="#b77459" x="80" y="60"/><rect width="20" height="20" fill="#dbd9dc" y="80"/><rect width="20" height="20" fill="#d6dff0" x="20" y="80"/><rect width="20" height="20" fill="#476ba7" x="40" y="80"/><rect width="20" height="20" fill="#3f5587" x="60" y="80"/><rect width="20" height="20" fill="#292d39" x="80" y="80"/></g></svg>