<svg xmlns="http://www.w3.org/2000/svg" width="100" height="100"><g fill="#e1e1e3"><rect width="20" height="20"/><rect width="20" height="20" fill="#e9e9e9" x="20"/><rect width="20" height="20" fill="#f5f5f5" x="40"/><rect width="20" height="20" fill="#fbfcf7" x="60"/><rect width="20" height="20" fill="#fefbf6" x="80"/><rect width="20" height="20" fill="#dedede" y="20"/><rect width="20" height="20" fill="#e4e2e3" x="20" y="20"/><rect width="20" height="20" fill="#edebec" x="40" y="20"/><rect width="20" height="20" fill="#fefffb" x="60" y="20"/><rect width="20" height="20" fill="#fffcff" x="80" y="20"/><rect width="20" height="20" fill="#dcdcdc" y="40"/><rect width="20" height="20" fill="#e1dfe0" x="20" y="40"/><rect width="20" height="20" fill="#e5e3e4" x="40" y="40"/><rect width="20" height="20" fill="#c1bbbf" x="60" y="40"/><rect width="20" height="20" fill="#221b2b" x="80" y="40"/><rect width="20" height="20" fill="#dad8dd" y="60"/><rect width="20" height="20" fill="#dddbdc" x="20" y="60"/><rect width="20" height="20" fill="#5b5a68" x="40" y="60"/><rect width="20" height="20" fill="#c2bebf" x="60" y="60"/><rect width="20" height="20" fill="#6a514c" x="80" y="60"/><rect width="20" height="20" fill="#d9d7da" y="80"/><rect width="20" height="20" fill="#dbdbdd" x="20" y="80"/><rect width="20" height="20" fill="#2a2742" x="40" y="80"/><rect width="20" height="20" fill="#2e2c37" x="60" y="80"/><rect width="20" height="20" fill="#232230" x="80" y="80"/></g></svg>