<svg xmlns="http://www.w3.org/2000/svg" width="110" height="100"><g fill="#ffffff"><rect width="27" height="20"/><rect width="27" height="20" x="27"/><rect width="27" height="20" x="54"/><rect width="27" height="20" x="81"/><rect width="27" height="20" y="20"/><rect width="27" height="20" x="27" y="20"/><rect width="27" height="20" x="54" y="20"/><rect width="27" height="20" x="81" y="20"/><rect width="27" height="20" y="40"/><rect width="27" height="20" x="27" y="40"/><rect width="27" height="20" x="54" y="40"/><rect width="27" height="20" x="81" y="40"/><rect width="27" height="20" y="60"/><rect width="27" height="20" x="27" y="60"/><rect width="27" height="20" x="54" y="60"/><rect width="27" height="20" x="81" y="60"/><rect width="27" height="20" y="80"/><rect width="27" height="20" x="27" y="80"/><rect width="27" height="20" x="54" y="80"/><rect width="27" height="20" x="81" y="80"/></g></svg>