<svg xmlns="http://www.w3.org/2000/svg" width="100" height="100"><g fill="#c1c4bd"><rect width="20" height="20"/><rect width="20" height="20" fill="#c9ccc5" x="20"/><rect width="20" height="20" fill="#d0d3cc" x="40"/><rect width="20" height="20" fill="#222325" x="60"/><rect width="20" height="20" fill="#232429" x="80"/><rect width="20" height="20" fill="#c2c5be" y="20"/><rect width="20" height="20" fill="#cbcec7" x="20" y="20"/><rect width="20" height="20" fill="#d4d7d0" x="40" y="20"/><rect width="20" height="20" fill="#352c31" x="60" y="20"/><rect width="20" height="20" fill="#e5bca0" x="80" y="20"/><rect width="20" height="20" fill="#c3c6bf" y="40"/><rect width="20" height="20" fill="#ced1ca" x="20" y="40"/><rect width="20" height="20" fill="#d1d4cd" x="40" y="40"/><rect width="20" height="20" fill="#82463e" x="60" y="40"/><rect width="20" height="20" fill="#e2c4a2" x="80" y="40"/><rect width="20" height="20" fill="#c5c8c1" y="60"/><rect width="20" height="20" fill="#cdd0c9" x="20" y="60"/><rect width="20" height="20" fill="#c1bcb8" x="40" y="60"/><rect width="20" height="20" fill="#3f211f" x="60" y="60"/><rect width="20" height="20" fill="#c67b68" x="80" y="60"/><rect width="20" height="20" fill="#c7cac3" y="80"/><rect width="20" height="20" fill="#cccfc8" x="20" y="80"/><rect width="20" height="20" fill="#a1a9ac" x="40" y="80"/><rect width="20" height="20" fill="#e1cfcb" x="60" y="80"/><rect width="20" height="20" fill="#c7c9c6" x="80" y="80"/></g></svg>