<svg xmlns="http://www.w3.org/2000/svg" width="100" height="100"><g fill="#ada6ad"><rect width="20" height="20"/><rect width="20" height="20" fill="#b9b4ba" x="20"/><rect width="20" height="20" fill="#bdb8be" x="40"/><rect width="20" height="20" fill="#beb9bf" x="60"/><rect width="20" height="20" fill="#c2c1c7" x="80"/><rect width="20" height="20" fill="#b8b3b9" y="20"/><rect width="20" height="20" fill="#bcb7bd" x="20" y="20"/><rect width="20" height="20" fill="#bfbac0" x="40" y="20"/><rect width="20" height="20" fill="#c3bec4" x="60" y="20"/><rect width="20" height="20" fill="#c7bcc0" x="80" y="20"/><rect width="20" height="20" fill="#bbb6bc" y="40"/><rect width="20" height="20" fill="#beb9bf" x="20" y="40"/><rect width="20" height="20" fill="#c1bcc2" x="40" y="40"/><rect width="20" height="20" fill="#c6c1c7" x="60" y="40"/><rect width="20" height="20" fill="#443226" x="80" y="40"/><rect width="20" height="20" fill="#bcb7bd" y="60"/><rect width="20" height="20" fill="#bfbac0" x="20" y="60"/><rect width="20" height="20" fill="#c1bcc2" x="40" y="60"/><rect width="20" height="20" fill="#c4bfc5" x="60" y="60"/><rect width="20" height="20" fill="#4a454b" x="80" y="60"/><rect width="20" height="20" fill="#beb9bf" y="80"/><rect width="20" height="20" fill="#beb9bf" x="20" y="80"/><rect width="20" height="20" fill="#c1bcc2" x="40" y="80"/><rect width="20" height="20" fill="#c8c1c9" x="60" y="80"/><rect width="20" height="20" fill="#2b1f29" x="80" y="80"/></g></svg>