<svg xmlns="http://www.w3.org/2000/svg" width="110" height="100"><g fill="#353e43"><rect width="27" height="20"/><rect width="27" height="20" fill="#bbcacf" x="27"/><rect width="27" height="20" fill="#141d24" x="54"/><rect width="27" height="20" fill="#53392a" x="81"/><rect width="27" height="20" fill="#444d52" y="20"/><rect width="27" height="20" fill="#bdcad0" x="27" y="20"/><rect width="27" height="20" fill="#1b1f1e" x="54" y="20"/><rect width="27" height="20" fill="#633424" x="81" y="20"/><rect width="27" height="20" fill="#525d59" y="40"/><rect width="27" height="20" fill="#c1ccd2" x="27" y="40"/><rect width="27" height="20" fill="#1f1b1a" x="54" y="40"/><rect width="27" height="20" fill="#5e351f" x="81" y="40"/><rect width="27" height="20" fill="#687170" y="60"/><rect width="27" height="20" fill="#cfdee5" x="27" y="60"/><rect width="27" height="20" fill="#707982" x="54" y="60"/><rect width="27" height="20" fill="#472011" x="81" y="60"/><rect width="27" height="20" fill="#6e797d" y="80"/><rect width="27" height="20" fill="#768394" x="27" y="80"/><rect width="27" height="20" fill="#656d80" x="54" y="80"/><rect width="27" height="20" fill="#524d51" x="81" y="80"/></g></svg>