<svg xmlns="http://www.w3.org/2000/svg" width="100" height="100"><g fill="#836c86"><rect width="20" height="20"/><rect width="20" height="20" fill="#8b515d" x="20"/><rect width="20" height="20" fill="#c6bce1" x="40"/><rect width="20" height="20" fill="#ffe5e0" x="60"/><rect width="20" height="20" fill="#c68687" x="80"/><rect width="20" height="20" fill="#4e3741" y="20"/><rect width="20" height="20" fill="#814551" x="20" y="20"/><rect width="20" height="20" fill="#4e4e70" x="40" y="20"/><rect width="20" height="20" fill="#fce7d4" x="60" y="20"/><rect width="20" height="20" fill="#b58f8e" x="80" y="20"/><rect width="20" height="20" fill="#765045" y="40"/><rect width="20" height="20" fill="#9787ae" x="20" y="40"/><rect width="20" height="20" fill="#8573a3" x="40" y="40"/><rect width="20" height="20" fill="#e6e1dd" x="60" y="40"/><rect width="20" height="20" fill="#ad968e" x="80" y="40"/><rect width="20" height="20" fill="#5b443e" y="60"/><rect width="20" height="20" fill="#c28451" x="20" y="60"/><rect width="20" height="20" fill="#a396b4" x="40" y="60"/><rect width="20" height="20" fill="#85827b" x="60" y="60"/><rect width="20" height="20" fill="#fee8d1" x="80" y="60"/><rect width="20" height="20" fill="#f3bb82" y="80"/><rect width="20" height="20" fill="#c2b392" x="20" y="80"/><rect width="20" height="20" fill="#5b4842" x="40" y="80"/><rect width="20" height="20" fill="#535059" x="60" y="80"/><rect width="20" height="20" fill="#ffe7ca" x="80" y="80"/></g></svg>