<svg xmlns="http://www.w3.org/2000/svg" width="110" height="100"><g fill="#adaaa5"><rect width="27" height="20"/><rect width="27" height="20" fill="#a9a69f" x="27"/><rect width="27" height="20" fill="#6c4633" x="54"/><rect width="27" height="20" fill="#9e7d6a" x="81"/><rect width="27" height="20" fill="#afaca7" y="20"/><rect width="27" height="20" fill="#a69790" x="27" y="20"/><rect width="27" height="20" fill="#7e553f" x="54" y="20"/><rect width="27" height="20" fill="#d3a897" x="81" y="20"/><rect width="27" height="20" fill="#b1aea9" y="40"/><rect width="27" height="20" fill="#472a1c" x="27" y="40"/><rect width="27" height="20" fill="#77492f" x="54" y="40"/><rect width="27" height="20" fill="#eccbb8" x="81" y="40"/><rect width="27" height="20" fill="#b1aea5" y="60"/><rect width="27" height="20" fill="#6f4b35" x="27" y="60"/><rect width="27" height="20" fill="#805340" x="54" y="60"/><rect width="27" height="20" fill="#d39a89" x="81" y="60"/><rect width="27" height="20" fill="#b3afa4" y="80"/><rect width="27" height="20" fill="#7a543f" x="27" y="80"/><rect width="27" height="20" fill="#472210" x="54" y="80"/><rect width="27" height="20" fill="#662f1b" x="81" y="80"/></g></svg>