<svg xmlns="http://www.w3.org/2000/svg" width="100" height="100"><g fill="#e5e0e6"><rect width="20" height="20"/><rect width="20" height="20" fill="#e6e1e7" x="20"/><rect width="20" height="20" fill="#e7e2e8" x="40"/><rect width="20" height="20" fill="#eee9ef" x="60"/><rect width="20" height="20" fill="#080309" x="80"/><rect width="20" height="20" y="20"/><rect width="20" height="20" fill="#e7e2e8" x="20" y="20"/><rect width="20" height="20" fill="#e8e3e9" x="40" y="20"/><rect width="20" height="20" fill="#372420" x="60" y="20"/><rect width="20" height="20" fill="#ae887f" x="80" y="20"/><rect width="20" height="20" fill="#e4dfe5" y="40"/><rect width="20" height="20" fill="#e6e1e7" x="20" y="40"/><rect width="20" height="20" fill="#bcb7bd" x="40" y="40"/><rect width="20" height="20" fill="#b78272" x="60" y="40"/><rect width="20" height="20" fill="#2d1e23" x="80" y="40"/><rect width="20" height="20" fill="#e3dee4" y="60"/><rect width="20" height="20" fill="#d9d4da" x="20" y="60"/><rect width="20" height="20" fill="#979097" x="40" y="60"/><rect width="20" height="20" fill="#503931" x="60" y="60"/><rect width="20" height="20" fill="#746d74" x="80" y="60"/><rect width="20" height="20" fill="#eae3ea" y="80"/><rect width="20" height="20" fill="#2f282f" x="20" y="80"/><rect width="20" height="20" fill="#756e75" x="40" y="80"/><rect width="20" height="20" fill="#4d464d" x="60" y="80"/><rect width="20" height="20" fill="#7a737a" x="80" y="80"/></g></svg>