<svg xmlns="http://www.w3.org/2000/svg" width="100" height="100"><g fill="#b9b7c5"><rect width="20" height="20"/><rect width="20" height="20" fill="#babac6" x="20"/><rect width="20" height="20" fill="#765953" x="40"/><rect width="20" height="20" fill="#604237" x="60"/><rect width="20" height="20" fill="#bdbbc9" x="80"/><rect width="20" height="20" y="20"/><rect width="20" height="20" fill="#b6a9b3" x="20" y="20"/><rect width="20" height="20" fill="#d5a9a6" x="40" y="20"/><rect width="20" height="20" fill="#916961" x="60" y="20"/><rect width="20" height="20" fill="#736769" x="80" y="20"/><rect width="20" height="20" fill="#b8b6c4" y="40"/><rect width="20" height="20" fill="#68575d" x="20" y="40"/><rect width="20" height="20" fill="#7c5f51" x="40" y="40"/><rect width="20" height="20" fill="#59372d" x="60" y="40"/><rect width="20" height="20" fill="#37221d" x="80" y="40"/><rect width="20" height="20" fill="#b4b2c0" y="60"/><rect width="20" height="20" fill="#cdaca5" x="20" y="60"/><rect width="20" height="20" fill="#694135" x="40" y="60"/><rect width="20" height="20" fill="#996454" x="60" y="60"/><rect width="20" height="20" fill="#1e0d03" x="80" y="60"/><rect width="20" height="20" fill="#b8b5be" y="80"/><rect width="20" height="20" fill="#d2b8bb" x="20" y="80"/><rect width="20" height="20" fill="#d1b1b4" x="40" y="80"/><rect width="20" height="20" fill="#d1a59a" x="60" y="80"/><rect width="20" height="20" fill="#6e4033" x="80" y="80"/></g></svg>