<svg xmlns="http://www.w3.org/2000/svg" width="110" height="100"><g fill="#1e1e26"><rect width="27" height="20"/><rect width="27" height="20" fill="#593d31" x="27"/><rect width="27" height="20" fill="#af8877" x="54"/><rect width="27" height="20" fill="#3e2d26" x="81"/><rect width="27" height="20" fill="#212227" y="20"/><rect width="27" height="20" fill="#e0b298" x="27" y="20"/><rect width="27" height="20" fill="#deae98" x="54" y="20"/><rect width="27" height="20" fill="#ca937e" x="81" y="20"/><rect width="27" height="20" fill="#a96e5c" y="40"/><rect width="27" height="20" fill="#be8f71" x="27" y="40"/><rect width="27" height="20" fill="#c8947f" x="54" y="40"/><rect width="27" height="20" fill="#814e3b" x="81" y="40"/><rect width="27" height="20" fill="#9e6d5e" y="60"/><rect width="27" height="20" fill="#b38262" x="27" y="60"/><rect width="27" height="20" fill="#b5876d" x="54" y="60"/><rect width="27" height="20" fill="#cd9e84" x="81" y="60"/><rect width="27" height="20" fill="#211d1a" y="80"/><rect width="27" height="20" fill="#ad8164" x="27" y="80"/><rect width="27" height="20" fill="#8f674e" x="54" y="80"/><rect width="27" height="20" fill="#7d614b" x="81" y="80"/></g></svg>